<svg width="12" height="12" viewBox="0 0 12 12" fill="none" xmlns="http://www.w3.org/2000/svg">
<path d="M11.7396 5.06828C11.9758 4.84515 12.0592 4.51768 11.9573 4.21326C11.8552 3.90885 11.5892 3.69154 11.2624 3.64542L8.35684 3.2362C8.23309 3.21873 8.12617 3.1435 8.0709 3.03473L6.77192 0.482944C6.62606 0.196229 6.33003 0.0180511 6.00012 0.0180511C5.67045 0.0180511 5.37442 0.196229 5.22856 0.482944L3.92934 3.03496C3.87407 3.14373 3.76691 3.21896 3.64316 3.23643L0.737627 3.64566C0.411079 3.69154 0.144842 3.90908 0.042721 4.2135C-0.0591601 4.51791 0.024219 4.84539 0.26042 5.06852L2.36268 7.05479C2.4523 7.13957 2.49339 7.26162 2.47225 7.38087L1.9763 10.1856C1.93233 10.4325 1.99913 10.6726 2.16396 10.862C2.42011 11.1571 2.86728 11.247 3.22482 11.0648L5.82327 9.7405C5.93188 9.6853 6.0686 9.68577 6.17697 9.7405L8.77566 11.0648C8.90205 11.1294 9.03685 11.162 9.17597 11.162C9.42996 11.162 9.67072 11.0525 9.83628 10.862C10.0014 10.6726 10.0679 10.432 10.0239 10.1856L9.52775 7.38087C9.50661 7.26139 9.5477 7.13957 9.63732 7.05479L11.7396 5.06828Z" fill="#9D2929"/>
</svg>
