<svg width="12" height="12" viewBox="0 0 12 12" fill="none" xmlns="http://www.w3.org/2000/svg">
<path d="M11.7396 5.06862C11.9758 4.84548 12.0592 4.518 11.9573 4.21358C11.8552 3.90916 11.5892 3.69185 11.2624 3.64573L8.35677 3.2365C8.23302 3.21903 8.12609 3.14379 8.07082 3.03502L6.77181 0.482953C6.62596 0.196232 6.32992 0.0180511 6 0.0180511C5.67032 0.0180511 5.37428 0.196232 5.22843 0.482953L3.92918 3.03502C3.87391 3.14379 3.76674 3.21903 3.64299 3.2365L0.737401 3.64596C0.410847 3.69185 0.144845 3.90916 0.0427218 4.21358C-0.0591613 4.518 0.0242195 4.84548 0.260425 5.06862L2.36272 7.05493C2.45235 7.13971 2.49344 7.26176 2.4723 7.38102L1.9761 10.186C1.92035 10.5012 2.05131 10.8135 2.31827 11.0017C2.58499 11.1901 2.93221 11.2146 3.22465 11.0653L5.82315 9.74093C5.93392 9.68456 6.06608 9.68456 6.17685 9.74093L8.77559 11.0653C8.90247 11.13 9.03991 11.162 9.17664 11.162C9.35421 11.162 9.53107 11.1082 9.68197 11.0017C9.94893 10.8135 10.0799 10.5012 10.0241 10.186L9.5277 7.38125C9.50656 7.26176 9.54765 7.13995 9.63727 7.05517L11.7396 5.06862ZM9.05433 7.45998L9.55053 10.2648C9.57552 10.4059 9.51905 10.5408 9.39939 10.6251C9.27948 10.7092 9.13026 10.7194 8.9993 10.6533L6.40056 9.32867C6.27537 9.26508 6.13745 9.23294 6 9.23294C5.86255 9.23294 5.72487 9.26508 5.59944 9.3289L3.00118 10.6533C2.86974 10.7194 2.72052 10.7092 2.60085 10.6251C2.48119 10.5408 2.42496 10.4061 2.44971 10.2648L2.94591 7.45998L2.69841 6.72163L0.59587 4.73508C0.489902 4.63493 0.453859 4.49378 0.499754 4.35752C0.545409 4.22103 0.660028 4.1274 0.806364 4.10667L3.71171 3.69744C3.99213 3.65807 4.23459 3.48758 4.35978 3.24115L5.65903 0.689084C5.72439 0.560514 5.85198 0.483885 5.99976 0.483885C6.14778 0.483885 6.27513 0.560514 6.34073 0.689084L7.63998 3.24115C7.76517 3.48758 8.00739 3.65807 8.2878 3.69744L11.1934 4.10667C11.3397 4.1274 11.4544 4.22103 11.5 4.35752C11.5457 4.49378 11.5099 4.63493 11.4039 4.73508L9.30159 6.7214C9.09878 6.91309 9.00627 7.18909 9.05433 7.45998Z" fill="#9D2929"/>
</svg>
